<svg width="65" height="65" viewBox="0 0 65 65" fill="none" xmlns="http://www.w3.org/2000/svg">
<path d="M28.6812 18.2404C28.9859 16.8744 28.7523 17.5244 26.787 14.6502C25.0199 12.0705 25.3855 8.40411 23.2933 6.58107C22.0085 5.46388 20.3988 4.20958 14.4015 7.22599C12.3195 8.27208 8.16048 11.7201 3.44798 13.2994C-0.34538 14.569 1.75696 16.1025 2.56439 16.3869C5.4386 17.3975 9.24212 15.2139 9.24212 15.2139C9.24212 15.2139 3.78821 18.7787 6.99251 19.6217C9.59251 20.3072 12.8679 17.1842 12.8679 17.1842C12.8679 17.1842 9.65853 20.5865 12.2839 21.46C14.0867 22.0592 17.6667 18.6365 17.6667 18.6365C17.6667 18.6365 15.1632 22.115 16.3718 22.8514C18.2101 23.9686 21.2214 21.0893 21.2214 21.0893C21.2214 21.0893 18.8296 24.583 20.0788 25.1518C21.9476 26.0049 24.7202 23.608 24.7202 23.608C24.7202 23.608 28.1327 20.683 28.6812 18.2404Z" fill="#E0E0E0"/>
<path d="M18.1187 6.9873C18.1187 6.9873 14.8484 8.90684 13.6551 10.4506C13.4977 10.6537 12.5176 11.6338 13.3809 12.1975C13.5992 12.3396 14.2492 12.2482 14.6352 12.0146C16.3922 10.9482 19.5 8.41934 19.8402 8.55137C20.1805 8.6834 17.0625 10.735 16.057 13.2182C15.6812 14.1525 16.4125 14.8229 18.3168 13.7006C20.3887 12.4818 22.1711 10.3338 22.4707 10.3439C22.4707 10.3439 21.6379 11.7963 20.5715 12.9439C19.4848 14.117 18.718 15.3104 19.5203 15.6861C20.5309 16.1635 22.7144 14.8686 22.7144 14.8686C22.7144 14.8686 21.323 16.5545 19.5203 16.9354C18.8855 17.0725 18.3879 16.9861 18.0832 16.6408C17.6211 16.1127 17.7988 15.3002 17.7988 15.3002C16.8391 15.6811 15.1836 16.3006 14.1984 15.4678C13.4316 14.8178 14.4777 12.9135 14.4777 12.9135C14.4777 12.9135 12.6242 13.9393 11.568 13.6295C11.0195 13.467 10.1816 12.6748 11.4055 10.9939C13.3352 8.36855 18.1187 6.9873 18.1187 6.9873ZM22.0289 25.4564C24.1465 22.7041 26.2641 19.9568 28.3816 17.2045L28.1988 16.4123C28.1074 16.133 27.2746 16.0975 26.1219 16.7627C25.35 17.2096 23.9332 18.8143 23.0242 17.9307C22.3945 17.3213 24.2023 15.1428 24.2023 15.1428C23.9535 15.1479 21.9476 16.4885 21.6277 17.8342C21.3535 18.9768 21.6176 20.3174 24.1973 19.0123C24.2734 18.9717 24.3547 18.926 24.4309 18.8803C24.1059 19.3932 23.8113 19.9314 23.5625 20.4799C22.8414 22.0643 22.4148 23.7604 22.0289 25.4564Z" fill="#BDBDBD"/>
<path d="M41.3308 5.65186L41.3664 5.67725Z" fill="url(#paint0_linear_44_550)"/>
<path d="M44.2456 35.9683C39.1421 43.6159 34.8511 52.0405 25.0909 54.6202C24.9894 54.6456 24.8827 54.6152 24.8116 54.539L8.86633 36.9433C8.39407 36.4202 8.62766 35.5925 9.29797 35.3741C15.8538 33.221 19.9468 28.0921 23.5929 22.623C28.6202 15.0921 32.9265 6.80461 42.3769 4.08781C42.7374 3.9507 43.1589 4.03703 43.4331 4.33664C45.5507 6.67258 61.5214 21.8765 61.5468 21.907C61.557 21.912 48.1609 30.098 44.2456 35.9683Z" fill="#48848B"/>
<path d="M29.509 39.4619C29.1637 39.1166 28.7523 38.9439 28.275 38.949C27.7977 38.9541 27.1781 39.1471 26.4113 39.5279C25.3703 40.0814 24.4664 40.3404 23.7098 40.315C22.9531 40.2846 22.2727 39.9697 21.6734 39.3654C21.059 38.751 20.734 38.0654 20.7035 37.3139C20.668 36.5623 20.927 35.8361 21.4805 35.1354L20.5105 34.1603C20.4421 34.0905 20.4038 33.9966 20.4038 33.8988C20.4038 33.801 20.4421 33.7072 20.5105 33.6373L20.8254 33.3225C20.9676 33.1803 21.2012 33.1803 21.3484 33.3225L22.3234 34.3025C23.0395 33.7592 23.7961 33.5357 24.5883 33.6271C25.2992 33.7135 26 34.0639 26.6855 34.6936C26.8176 34.8154 26.8176 35.0287 26.6906 35.1557L26.1117 35.7346C25.9898 35.8564 25.7918 35.8564 25.6648 35.7396C25.2078 35.3436 24.7355 35.115 24.2531 35.0643C23.6895 35.0033 23.1918 35.1861 22.7652 35.6127C22.3184 36.0596 22.0898 36.5166 22.0848 36.9787C22.0797 37.4459 22.2828 37.8877 22.6941 38.299C23.075 38.685 23.5066 38.8627 23.984 38.8424C24.4613 38.8221 25.0758 38.6189 25.8375 38.233C26.5992 37.8471 27.2441 37.6084 27.7926 37.5119C28.3359 37.4154 28.8336 37.4408 29.2805 37.583C29.7273 37.7303 30.1488 37.9994 30.5449 38.3955C31.1746 39.0303 31.4945 39.7311 31.4996 40.4979C31.5047 41.2646 31.2 42.0264 30.5805 42.783L31.393 43.5955C31.5352 43.7377 31.5352 43.9713 31.393 44.1186L31.0832 44.4283C30.941 44.5705 30.7074 44.5705 30.5602 44.4283L29.7477 43.6158C28.9859 44.2455 28.1887 44.5451 27.3609 44.5045C26.6246 44.4689 25.9188 44.1541 25.2484 43.56C25.2163 43.5308 25.1905 43.4954 25.1727 43.4558C25.1548 43.4162 25.1454 43.3734 25.1449 43.33C25.1444 43.2866 25.1529 43.2436 25.1699 43.2036C25.1868 43.1637 25.2118 43.1277 25.2434 43.0979L25.8324 42.5139C25.9492 42.3971 26.1371 42.3869 26.2641 42.4936C26.716 42.8846 27.1832 43.0826 27.6656 43.0928C28.2191 43.1029 28.7473 42.8541 29.25 42.3514C29.7426 41.8639 30.0117 41.3561 30.0574 40.8432C30.093 40.3303 29.9152 39.8682 29.509 39.4619Z" fill="white"/>
<path d="M30.8089 43.0318L29.7425 43.626L21.5007 35.1658L21.2214 34.8814L22.3234 34.3076L30.5652 42.7881L30.8089 43.0318Z" fill="white"/>
<path opacity="0.5" d="M38.5329 30.4534C42.5771 30.4534 45.8555 27.175 45.8555 23.1308C45.8555 19.0866 42.5771 15.8081 38.5329 15.8081C34.4887 15.8081 31.2102 19.0866 31.2102 23.1308C31.2102 27.175 34.4887 30.4534 38.5329 30.4534Z" fill="white"/>
<path d="M46.8001 39.8225C44.1848 43.7428 40.4168 51.2229 35.227 55.3361C30.4637 59.1143 24.4563 60.9779 24.4563 60.9779L7.927 41.6201L8.61255 36.3084L24.8219 54.5439C24.8879 54.615 24.9895 54.6506 25.086 54.6252C34.8512 52.0455 39.1422 43.6209 44.2458 35.9732C48.161 30.1029 54.0161 23.8467 61.552 21.917C62.1512 22.5771 61.8872 28.1123 61.2321 28.3307C54.5543 30.5447 50.4563 34.333 46.8001 39.8225Z" fill="#EDEDED"/>
<path d="M40.041 42.4125L41.5746 48.0746C41.5746 48.0746 46.2465 41.2395 47.0031 39.584L45.307 34.4805C43.0422 37.2988 40.041 42.4125 40.041 42.4125Z" fill="#FFC06C"/>
<path d="M39.6449 8.63799C40.0359 9.20166 40.7215 9.78564 41.8234 10.1259C42.2145 10.2478 42.6258 10.3087 43.0371 10.3087C43.9105 10.3087 44.6418 10.0396 45.1344 9.79072C46.3684 11.0298 47.9121 12.538 49.4051 14.0005C50.8676 15.4325 52.3707 16.9052 53.5945 18.129C53.1984 18.7333 52.8836 19.6474 53.0156 20.8813C53.0766 21.4501 53.4777 22.029 53.9043 22.5013C51.2027 24.238 46.018 28.0974 40.7012 34.9021C39.5789 36.3392 38.482 37.9337 37.4258 39.4724C34.7953 43.3013 32.0785 47.2521 28.4629 49.6692C28.0363 48.9735 27.2492 48.1306 25.8426 47.7802C25.5023 47.6938 25.1672 47.6532 24.8473 47.6532C23.9434 47.6532 23.2324 47.9884 22.7246 48.3845L15.0566 39.5688C15.7016 39.0661 16.3059 38.2079 16.3668 36.8825C16.3973 36.263 16.0672 35.6993 15.6914 35.2728C19.4289 32.5052 23.3746 28.0923 25.4973 24.9235C25.807 24.4614 26.127 23.979 26.457 23.4813C29.7781 18.4692 34.2773 11.7052 39.6449 8.63799ZM40.0461 7.44971C33.5867 10.6489 28.4426 18.9821 24.7812 24.436C22.3844 28.006 18.0527 32.6626 14.3203 35.1763C14.3203 35.1763 15.5441 36.0446 15.5035 36.8317C15.402 38.9442 13.6855 39.2997 13.6855 39.2997L22.6992 49.6591C22.6992 49.6591 23.3594 48.5013 24.8422 48.5013C25.0809 48.5013 25.3449 48.5317 25.6293 48.6028C27.6707 49.1106 28.082 50.9083 28.082 50.9083C33.8406 47.5567 37.3191 40.6149 41.3715 35.42C46.8711 28.3767 52.3402 24.3853 55.3008 22.6333C55.3008 22.6333 53.9398 21.5313 53.8637 20.7798C53.6555 18.8044 54.7727 18.0935 54.7727 18.0935C52.1574 15.4478 47.8613 11.3294 45.2613 8.69385C45.2613 8.69385 44.3168 9.43525 43.032 9.43525C42.7273 9.43525 42.4023 9.39463 42.0723 9.29307C40.2035 8.72939 40.0461 7.44971 40.0461 7.44971Z" fill="#EDEDED"/>
<path d="M27.3304 16.9204L22.3894 24.3903L40.041 42.4126C40.041 42.4126 42.9253 37.8524 45.3019 34.4806L27.3304 16.9204Z" fill="#FFECB3"/>
<path opacity="0.68" d="M46.0179 36.6235C46.0179 36.6235 42.5343 38.3958 41.5847 43.7989C41.2241 45.8403 41.5796 48.0747 41.5796 48.0747L44.4538 43.6517L46.5104 37.502L46.0179 36.6235Z" fill="#D69136"/>
<path d="M45.0177 37.7963C46.0282 36.8263 46.3634 36.5267 49.522 36.2982C52.64 36.0697 54.072 34.7037 58.0126 35.5212C59.6782 35.8666 62.3189 37.39 61.6486 43.4634C61.3946 45.7791 61.4556 51.1314 62.5474 55.981C63.4259 59.881 61.0239 58.8806 60.3638 58.3373C58.0075 56.4025 57.906 52.0201 57.906 52.0201C57.906 52.0201 57.6825 58.5302 55.3009 56.2298C53.3712 54.3611 54.3411 49.9431 54.3411 49.9431C54.3411 49.9431 53.0919 54.4525 50.9845 52.6548C49.5372 51.4209 50.6138 46.5865 50.6138 46.5865C50.6138 46.5865 48.9329 50.5322 47.6837 49.8771C45.7743 48.8818 46.6782 44.8142 46.6782 44.8142C46.6782 44.8142 44.9314 48.6685 43.7939 47.8916C42.0978 46.7338 42.7122 43.1232 42.7122 43.1232C42.7122 43.1232 43.2099 39.5279 45.0177 37.7963Z" fill="#E0E0E0"/>
<path d="M60.0945 40.2593C60.0945 40.2593 60.3382 43.3976 60.1198 45.2714C59.9827 46.4343 59.9218 47.5007 58.8554 47.3433C58.5964 47.3026 57.9921 46.7999 57.8855 44.8651C57.7737 42.8136 58.2003 40.1019 57.9007 39.8987C57.6011 39.6905 57.5859 43.2503 56.103 45.4796C55.5445 46.3175 54.605 46.4089 54.4577 44.1999C54.2952 41.7979 55.5394 38.9542 55.3616 38.7104C55.3616 38.7104 54.3105 40.0054 53.7011 41.8386C53.0917 43.6718 52.8226 44.5351 52.1066 44.0069C50.8218 43.0624 52.7058 39.2995 52.7058 39.2995C52.7058 39.2995 51.3245 40.5335 50.7253 42.2601C50.3445 43.3569 50.5527 45.1597 51.5277 45.6167C52.6753 46.155 53.3456 45.1952 53.3456 45.1952C53.3456 45.1952 53.5894 48.2675 55.0874 48.2015C56.5245 48.1354 56.8902 46.5155 56.8902 46.5155C56.8902 46.5155 56.8292 48.0796 58.2816 49.1511C58.9874 49.6741 60.6277 49.7604 60.8308 47.6886C61.1609 44.3269 60.0945 40.2593 60.0945 40.2593ZM48.2777 39.1573C47.9679 39.0812 47.521 40.4776 46.9624 41.2647C46.7491 41.5593 46.2921 42.1636 45.5913 42.1128C44.8905 42.062 45.4441 40.0003 45.2816 40.112C45.1191 40.2237 44.464 41.3257 44.723 42.6054C44.7941 42.9608 45.1546 43.3823 45.5101 43.4382C46.8405 43.6515 47.4245 42.0163 47.4245 42.0163C47.4245 42.0163 47.2265 43.9714 48.5417 44.1745C50.1312 44.4183 50.4562 41.9147 50.314 41.8233C50.1718 41.7319 49.6589 43.3976 48.5265 42.6866C47.5972 42.0976 48.5874 39.2386 48.2777 39.1573Z" fill="#BDBDBD"/>
<path d="M7.927 41.6154L24.3954 60.9072C24.3954 60.9072 25.1317 59.8154 25.2993 58.1143C25.4465 56.6314 24.9286 54.6611 24.9286 54.6611L8.61255 36.3037L7.927 41.6154Z" fill="#EDEDED"/>
<defs>
<linearGradient id="paint0_linear_44_550" x1="41.3493" y1="5.66542" x2="41.3493" y2="5.66542" gradientUnits="userSpaceOnUse">
<stop stop-color="#43A047"/>
<stop offset="0.999" stop-color="#66BB6A"/>
</linearGradient>
</defs>
</svg>
