<svg width="50" height="50" viewBox="0 0 50 50" fill="none" xmlns="http://www.w3.org/2000/svg">
<path d="M39.7293 10.2706C36.311 6.82997 31.7994 4.68979 26.9723 4.21902C22.1451 3.74824 17.305 4.97638 13.2863 7.6917C9.26767 10.407 6.32228 14.4394 4.95797 19.0935C3.59365 23.7477 3.89591 28.7321 5.81262 33.1873C6.0124 33.6014 6.07794 34.0675 6.00012 34.5206L4.16679 43.3331C4.09616 43.671 4.11058 44.0211 4.20876 44.352C4.30695 44.6829 4.48582 44.9843 4.72929 45.2289C4.92888 45.4271 5.16653 45.5828 5.4279 45.6866C5.68928 45.7904 5.96897 45.8403 6.25012 45.8331H6.66679L15.5835 44.0414C16.0366 43.9869 16.4962 44.0516 16.9168 44.2289C21.372 46.1456 26.3563 46.4479 31.0105 45.0836C35.6647 43.7193 39.697 40.7739 42.4124 36.7552C45.1277 32.7365 46.3558 27.8964 45.885 23.0693C45.4143 18.2422 43.2741 13.7306 39.8335 10.3123L39.7293 10.2706ZM16.6668 27.0831C16.2547 27.0831 15.852 26.9609 15.5094 26.732C15.1668 26.5031 14.8997 26.1777 14.742 25.797C14.5844 25.4163 14.5431 24.9975 14.6235 24.5933C14.7039 24.1892 14.9023 23.818 15.1937 23.5266C15.485 23.2353 15.8562 23.0368 16.2604 22.9565C16.6645 22.8761 17.0834 22.9173 17.464 23.075C17.8447 23.2327 18.1701 23.4997 18.399 23.8423C18.6279 24.1849 18.7501 24.5877 18.7501 24.9998C18.7501 25.5523 18.5306 26.0822 18.1399 26.4729C17.7492 26.8636 17.2193 27.0831 16.6668 27.0831ZM25.0001 27.0831C24.5881 27.0831 24.1853 26.9609 23.8427 26.732C23.5001 26.5031 23.2331 26.1777 23.0754 25.797C22.9177 25.4163 22.8764 24.9975 22.9568 24.5933C23.0372 24.1892 23.2356 23.818 23.527 23.5266C23.8183 23.2353 24.1896 23.0368 24.5937 22.9565C24.9978 22.8761 25.4167 22.9173 25.7974 23.075C26.1781 23.2327 26.5034 23.4997 26.7324 23.8423C26.9613 24.1849 27.0835 24.5877 27.0835 24.9998C27.0835 25.5523 26.864 26.0822 26.4733 26.4729C26.0826 26.8636 25.5527 27.0831 25.0001 27.0831ZM33.3335 27.0831C32.9214 27.0831 32.5186 26.9609 32.176 26.732C31.8334 26.5031 31.5664 26.1777 31.4087 25.797C31.251 25.4163 31.2098 24.9975 31.2902 24.5933C31.3705 24.1892 31.569 23.818 31.8603 23.5266C32.1517 23.2353 32.5229 23.0368 32.927 22.9565C33.3311 22.8761 33.75 22.9173 34.1307 23.075C34.5114 23.2327 34.8368 23.4997 35.0657 23.8423C35.2946 24.1849 35.4168 24.5877 35.4168 24.9998C35.4168 25.5523 35.1973 26.0822 34.8066 26.4729C34.4159 26.8636 33.886 27.0831 33.3335 27.0831Z" fill="white"/>
</svg>
