<svg width="45" height="45" viewBox="0 0 45 45" fill="none" xmlns="http://www.w3.org/2000/svg">
<path d="M6.32129 29.9979C6.46719 29.8222 6.61045 29.6464 6.75107 29.4768C8.68467 27.138 9.85449 25.7265 9.85449 19.1057C9.85449 15.6779 10.6745 12.8654 12.2908 10.7561C13.4826 9.19775 15.0937 8.01563 17.2171 7.14199C17.2444 7.12679 17.2688 7.10685 17.2892 7.08311C18.0529 4.52549 20.143 2.8125 22.5002 2.8125C24.8574 2.8125 26.9466 4.52549 27.7104 7.08047C27.7307 7.10338 27.7548 7.12269 27.7815 7.1376C32.7368 9.17754 35.145 13.0913 35.145 19.103C35.145 25.7265 36.3131 27.138 38.2484 29.4741C38.3891 29.6438 38.5323 29.816 38.6782 29.9953C39.0551 30.4498 39.2939 31.0028 39.3663 31.5887C39.4387 32.1747 39.3418 32.7692 39.0869 33.3018C38.5446 34.4443 37.3889 35.1536 36.0696 35.1536H8.92109C7.60801 35.1536 6.46015 34.4452 5.91611 33.3079C5.66015 32.7752 5.56227 32.1803 5.63408 31.5936C5.70589 31.007 5.94439 30.4532 6.32129 29.9979ZM22.5002 42.1875C21.2301 42.1865 19.984 41.8417 18.8941 41.1898C17.8041 40.5379 16.9109 39.6031 16.3092 38.4847C16.2808 38.4311 16.2668 38.371 16.2685 38.3104C16.2702 38.2498 16.2876 38.1907 16.3189 38.1388C16.3502 38.0868 16.3944 38.0439 16.4472 38.0141C16.5001 37.9843 16.5597 37.9687 16.6203 37.9688H28.3783C28.439 37.9685 28.4988 37.984 28.5517 38.0138C28.6046 38.0435 28.649 38.0864 28.6804 38.1384C28.7118 38.1903 28.7292 38.2495 28.731 38.3102C28.7327 38.3709 28.7187 38.431 28.6903 38.4847C28.0887 39.603 27.1956 40.5377 26.1058 41.1896C25.016 41.8415 23.7701 42.1863 22.5002 42.1875Z" fill="white"/>
</svg>
