<svg width="50" height="50" viewBox="0 0 50 50" fill="none" xmlns="http://www.w3.org/2000/svg">
<g clip-path="url(#clip0_55_1162)">
<path fill-rule="evenodd" clip-rule="evenodd" d="M24.9998 4.1665C13.4936 4.1665 4.1665 13.4936 4.1665 24.9998C4.1665 36.5061 13.4936 45.8332 24.9998 45.8332C36.5061 45.8332 45.8332 36.5061 45.8332 24.9998C45.8332 13.4936 36.5061 4.1665 24.9998 4.1665ZM17.7082 19.7915C17.7082 18.8339 17.8968 17.8858 18.2632 17.0011C18.6297 16.1164 19.1668 15.3126 19.8439 14.6355C20.5209 13.9584 21.3248 13.4213 22.2094 13.0549C23.0941 12.6884 24.0423 12.4998 24.9998 12.4998C25.9574 12.4998 26.9056 12.6884 27.7902 13.0549C28.6749 13.4213 29.4787 13.9584 30.1558 14.6355C30.8329 15.3126 31.37 16.1164 31.7365 17.0011C32.1029 17.8858 32.2915 18.8339 32.2915 19.7915C32.2915 21.7254 31.5233 23.58 30.1558 24.9475C28.7884 26.3149 26.9337 27.0832 24.9998 27.0832C23.066 27.0832 21.2113 26.3149 19.8439 24.9475C18.4764 23.58 17.7082 21.7254 17.7082 19.7915ZM38.0373 35.3832C36.4778 37.3449 34.4953 38.9289 32.2377 40.0169C29.9801 41.105 27.5059 41.6688 24.9998 41.6665C22.4938 41.6688 20.0196 41.105 17.762 40.0169C15.5044 38.9289 13.5218 37.3449 11.9623 35.3832C15.3394 32.9603 19.9478 31.2498 24.9998 31.2498C30.0519 31.2498 34.6603 32.9603 38.0373 35.3832Z" fill="white"/>
</g>
<defs>
<clipPath id="clip0_55_1162">
<rect width="50" height="50" fill="white"/>
</clipPath>
</defs>
</svg>
